<svg width="19" height="19" viewBox="0 0 19 19" fill="none" xmlns="http://www.w3.org/2000/svg">
<g clip-path="url(#clip0_2_646)">
<path d="M4.53281 1.50806H13.5984C13.7988 1.50806 13.9909 1.58749 14.1326 1.72889C14.2743 1.87029 14.3539 2.06206 14.3539 2.26202V15.8335C14.3539 16.0334 14.2743 16.2252 14.1326 16.3666C13.9909 16.508 13.7988 16.5874 13.5984 16.5874H4.53281C4.33245 16.5874 4.14029 16.508 3.99861 16.3666C3.85694 16.2252 3.77734 16.0334 3.77734 15.8335V2.26202C3.77734 2.06206 3.85694 1.87029 3.99861 1.72889C4.14029 1.58749 4.33245 1.50806 4.53281 1.50806ZM9.06561 12.8176C8.86524 12.8176 8.67309 12.897 8.53141 13.0384C8.38973 13.1798 8.31014 13.3716 8.31014 13.5715C8.31014 13.7715 8.38973 13.9633 8.53141 14.1047C8.67309 14.2461 8.86524 14.3255 9.06561 14.3255C9.26597 14.3255 9.45812 14.2461 9.5998 14.1047C9.74148 13.9633 9.82107 13.7715 9.82107 13.5715C9.82107 13.3716 9.74148 13.1798 9.5998 13.0384C9.45812 12.897 9.26597 12.8176 9.06561 12.8176Z" fill="#2B2B2B"/>
</g>
<defs>
<clipPath id="clip0_2_646">
<rect width="18.1312" height="18.0952" fill="white"/>
</clipPath>
</defs>
</svg>
