<svg width="19" height="19" viewBox="0 0 19 19" fill="none" xmlns="http://www.w3.org/2000/svg">
<g clip-path="url(#clip0_2_636)">
<path d="M2.26621 2.26196H15.8646C16.065 2.26196 16.2571 2.3414 16.3988 2.4828C16.5405 2.62419 16.6201 2.81597 16.6201 3.01593V15.0794C16.6201 15.2794 16.5405 15.4712 16.3988 15.6126C16.2571 15.754 16.065 15.8334 15.8646 15.8334H2.26621C2.06585 15.8334 1.87369 15.754 1.73201 15.6126C1.59034 15.4712 1.51074 15.2794 1.51074 15.0794V3.01593C1.51074 2.81597 1.59034 2.62419 1.73201 2.4828C1.87369 2.3414 2.06585 2.26196 2.26621 2.26196V2.26196ZM9.11073 8.80867L4.26668 4.70331L3.28835 5.85236L9.12055 10.7946L14.8477 5.84859L13.8596 4.70784L9.11149 8.80867H9.11073Z" fill="#2B2B2B"/>
</g>
<defs>
<clipPath id="clip0_2_636">
<rect width="18.1312" height="18.0952" fill="white"/>
</clipPath>
</defs>
</svg>
