<svg width="19" height="19" viewBox="0 0 19 19" fill="none" xmlns="http://www.w3.org/2000/svg">
<g clip-path="url(#clip0_2_656)">
<path d="M1.51074 3.76996L6.799 1.50806L11.3318 3.76996L16.0935 1.73349C16.151 1.7089 16.2137 1.69894 16.276 1.7045C16.3383 1.71006 16.3982 1.73096 16.4504 1.76534C16.5026 1.79972 16.5454 1.8465 16.575 1.90148C16.6046 1.95645 16.6201 2.0179 16.6201 2.08032V14.3255L11.3318 16.5874L6.799 14.3255L2.0373 16.362C1.97982 16.3866 1.91712 16.3965 1.85483 16.391C1.79254 16.3854 1.73261 16.3645 1.68041 16.3301C1.62821 16.2958 1.58539 16.249 1.55577 16.194C1.52616 16.139 1.51069 16.0776 1.51074 16.0152V3.76996ZM11.3318 14.9015V5.4106L11.2827 5.43171L6.799 3.19393V12.6849L6.84811 12.6638L11.3318 14.9015Z" fill="#2B2B2B"/>
</g>
<defs>
<clipPath id="clip0_2_656">
<rect width="18.1312" height="18.0952" fill="white"/>
</clipPath>
</defs>
</svg>
